<?xml version="1.0" standalone="no"?>
<!DOCTYPE svg PUBLIC "-//W3C//DTD SVG 20010904//EN"
 "http://www.w3.org/TR/2001/REC-SVG-20010904/DTD/svg10.dtd">
<svg version="1.0" xmlns="http://www.w3.org/2000/svg"
 width="512.000000pt" height="512.000000pt" viewBox="0 0 512.000000 512.000000"
 preserveAspectRatio="xMidYMid meet">

<g transform="translate(0.000000,512.000000) scale(0.100000,-0.100000)"
fill="#000000" stroke="none">
<path d="M2325 5111 c-11 -5 -29 -19 -40 -31 -19 -21 -20 -38 -23 -391 l-3
-369 -250 0 c-268 0 -294 -4 -321 -53 -8 -14 -14 -79 -16 -184 l-4 -162 -174
-3 -174 -3 -27 -28 -28 -27 -3 -169 -3 -169 -119 -4 c-115 -3 -121 -4 -147
-31 l-28 -27 -3 -448 -3 -447 -237 -143 c-130 -79 -244 -148 -253 -155 -20
-16 -39 -51 -39 -74 0 -13 409 -1405 516 -1756 5 -16 3 -17 -13 -8 -11 5 -64
18 -119 27 -238 40 -436 -15 -662 -186 -103 -78 -139 -115 -147 -151 -10 -43
11 -85 50 -103 59 -28 59 -29 209 85 192 145 367 196 528 154 31 -8 101 -34
155 -59 163 -73 251 -96 388 -103 153 -7 235 12 412 98 336 161 434 165 726
28 271 -127 393 -157 561 -139 108 13 184 39 345 119 155 78 232 106 313 116
101 13 243 -22 409 -98 262 -121 513 -115 734 17 59 35 197 141 242 185 58 58
52 135 -12 165 -61 29 -62 29 -216 -96 -96 -78 -173 -122 -254 -143 -67 -17
-169 -19 -235 -5 -69 16 -190 63 -190 75 0 6 117 404 260 885 143 481 260 883
260 893 0 23 -19 58 -39 74 -9 7 -123 76 -253 155 l-237 143 -3 447 -3 448
-28 27 c-26 27 -32 28 -147 31 l-119 4 -3 169 -3 169 -28 27 -27 28 -174 3
-174 3 -4 162 c-2 105 -8 170 -16 184 -27 49 -53 53 -321 53 l-250 0 -3 370
-3 370 -28 27 -27 28 -228 2 c-125 1 -236 -2 -247 -6z m335 -491 l0 -300 -100
0 -100 0 0 300 0 300 100 0 100 0 0 -300z m580 -600 l0 -100 -680 0 -680 0 0
100 0 100 680 0 680 0 0 -100z m420 -400 l0 -100 -1100 0 -1100 0 0 100 0 100
1100 0 1100 0 0 -100z m-1475 -309 c-7 -6 -786 -479 -1017 -618 -5 -2 -8 138
-8 311 l0 316 517 0 c299 0 513 -4 508 -9z m1775 -307 c0 -173 -3 -313 -7
-311 -232 139 -1011 612 -1017 618 -6 5 208 9 507 9 l517 0 0 -316z m-1500
-1158 l0 -1394 -48 18 c-156 59 -356 65 -510 14 -26 -9 -119 -51 -207 -95
-197 -97 -281 -118 -407 -102 -44 6 -84 15 -88 19 -10 11 -553 1834 -548 1840
5 4 1802 1094 1806 1094 1 0 2 -627 2 -1394z m1135 830 c478 -290 871 -528
873 -530 2 -2 -107 -375 -242 -828 -176 -593 -248 -822 -258 -819 -48 13 -177
22 -253 18 -114 -5 -220 -40 -418 -137 -172 -84 -224 -100 -332 -100 -92 1
-142 10 -237 46 l-68 26 0 1445 0 1445 33 -20 c17 -11 423 -257 902 -546z"/>
<path d="M2155 2786 c-66 -29 -72 -119 -11 -168 46 -38 135 -4 150 57 9 36
-17 91 -53 109 -36 19 -47 19 -86 2z"/>
<path d="M1755 2537 c-329 -203 -594 -373 -612 -394 -25 -26 -31 -80 -13 -114
16 -28 68 -52 102 -45 15 3 179 101 364 217 273 172 339 218 351 244 19 40 11
77 -22 111 -38 38 -87 33 -170 -19z"/>
<path d="M2928 2773 c-57 -36 -63 -100 -14 -149 44 -44 83 -45 128 -5 27 24
33 36 33 71 0 35 -6 47 -33 71 -37 33 -74 37 -114 12z"/>
<path d="M3271 2566 c-58 -32 -66 -100 -18 -150 34 -36 634 -409 686 -427 93
-33 163 87 94 160 -22 23 -583 374 -670 420 -28 14 -62 14 -92 -3z"/>
</g>
</svg>
